<?xml version="1.0" encoding="UTF-8" standalone="no"?>
<!-- Created with Inkscape (http://www.inkscape.org/) -->

<svg
   xmlns:dc="http://purl.org/dc/elements/1.1/"
   xmlns:cc="http://creativecommons.org/ns#"
   xmlns:rdf="http://www.w3.org/1999/02/22-rdf-syntax-ns#"
   xmlns:svg="http://www.w3.org/2000/svg"
   xmlns="http://www.w3.org/2000/svg"
   xmlns:sodipodi="http://sodipodi.sourceforge.net/DTD/sodipodi-0.dtd"
   xmlns:inkscape="http://www.inkscape.org/namespaces/inkscape"
   version="1.1"
   id="svg2"
   xml:space="preserve"
   width="413.33334"
   height="341.33334"
   viewBox="0 0 413.33334 341.33334"
   sodipodi:docname="curve_example.svg"
   inkscape:version="0.92.3 (2405546, 2018-03-11)"><metadata
     id="metadata8"><rdf:RDF><cc:Work
         rdf:about=""><dc:format>image/svg+xml</dc:format><dc:type
           rdf:resource="http://purl.org/dc/dcmitype/StillImage" /><dc:title></dc:title></cc:Work></rdf:RDF></metadata><defs
     id="defs6"><clipPath
       clipPathUnits="userSpaceOnUse"
       id="clipPath18"><path
         d="M 0,0 H 432 V 360 H 0 Z"
         id="path16"
         inkscape:connector-curvature="0" /></clipPath><clipPath
       clipPathUnits="userSpaceOnUse"
       id="clipPath22"><path
         d="M 113.327,94.92 H 371.423 V 310 H 113.327 Z"
         id="path20"
         inkscape:connector-curvature="0" /></clipPath><clipPath
       clipPathUnits="userSpaceOnUse"
       id="clipPath26"><path
         d="M 113.327,94.92 H 371.423 V 310 H 113.327 Z"
         id="path24"
         inkscape:connector-curvature="0" /></clipPath><clipPath
       clipPathUnits="userSpaceOnUse"
       id="clipPath30"><path
         d="m -3.125,-3.125 h 6.25 v 6.25 h -6.25 z"
         id="path28"
         inkscape:connector-curvature="0" /></clipPath><clipPath
       clipPathUnits="userSpaceOnUse"
       id="clipPath34"><path
         d="m -3.125,-3.125 h 6.25 v 6.25 h -6.25 z"
         id="path32"
         inkscape:connector-curvature="0" /></clipPath><clipPath
       clipPathUnits="userSpaceOnUse"
       id="clipPath38"><path
         d="m -3.125,-3.125 h 6.25 v 6.25 h -6.25 z"
         id="path36"
         inkscape:connector-curvature="0" /></clipPath><clipPath
       clipPathUnits="userSpaceOnUse"
       id="clipPath42"><path
         d="m -3.125,-3.125 h 6.25 v 6.25 h -6.25 z"
         id="path40"
         inkscape:connector-curvature="0" /></clipPath><clipPath
       clipPathUnits="userSpaceOnUse"
       id="clipPath46"><path
         d="m -3.125,-3.125 h 6.25 v 6.25 h -6.25 z"
         id="path44"
         inkscape:connector-curvature="0" /></clipPath></defs><sodipodi:namedview
     pagecolor="#ffffff"
     bordercolor="#666666"
     borderopacity="1"
     objecttolerance="10"
     gridtolerance="10"
     guidetolerance="10"
     inkscape:pageopacity="0"
     inkscape:pageshadow="2"
     inkscape:window-width="764"
     inkscape:window-height="480"
     id="namedview4"
     showgrid="false"
     inkscape:zoom="0.69140623"
     inkscape:cx="206.66667"
     inkscape:cy="170.66667"
     inkscape:window-x="0"
     inkscape:window-y="0"
     inkscape:window-maximized="0"
     inkscape:current-layer="g10" /><g
     id="g10"
     inkscape:groupmode="layer"
     inkscape:label="curve_example"
     transform="matrix(1.3333333,0,0,-1.3333333,0,341.33333)"><g
       id="g12"
       transform="translate(-62,-55)"><g
         id="g14" /><g
         id="g214"><g
           clip-path="url(#clipPath18)"
           id="g212"><path
             d="M 0,0 H 432 V 360 H 0 Z"
             style="fill:#ffffff;fill-opacity:1;fill-rule:nonzero;stroke:none"
             id="path48"
             inkscape:connector-curvature="0" /><path
             d="M 113.327,94.92 H 371.423 V 310 H 113.327 Z"
             style="fill:#ffffff;fill-opacity:1;fill-rule:nonzero;stroke:none"
             id="path50"
             inkscape:connector-curvature="0" /><path
             d="m 125.05864,94.92 v -3.5"
             style="fill:#000000;fill-opacity:1;fill-rule:nonzero;stroke:#000000;stroke-width:0.80000001;stroke-linecap:butt;stroke-linejoin:round;stroke-miterlimit:10;stroke-dasharray:none;stroke-opacity:1"
             id="path52"
             inkscape:connector-curvature="0" /><text
             transform="matrix(1,0,0,-1,115.51176,78.795)"
             style="font-variant:normal;font-weight:normal;font-size:12px;font-family:'DejaVu Sans';-inkscape-font-specification:DejaVuSans;writing-mode:lr-tb;fill:#000000;fill-opacity:1;fill-rule:nonzero;stroke:none"
             id="text56"><tspan
               x="0 7.632 11.448"
               y="0"
               sodipodi:role="line"
               id="tspan54">0.2</tspan></text>
<path
             d="m 164.16409,94.92 v -3.5"
             style="fill:#000000;fill-opacity:1;fill-rule:nonzero;stroke:#000000;stroke-width:0.80000001;stroke-linecap:butt;stroke-linejoin:round;stroke-miterlimit:10;stroke-dasharray:none;stroke-opacity:1"
             id="path58"
             inkscape:connector-curvature="0" /><text
             transform="matrix(1,0,0,-1,154.61722,78.795)"
             style="font-variant:normal;font-weight:normal;font-size:12px;font-family:'DejaVu Sans';-inkscape-font-specification:DejaVuSans;writing-mode:lr-tb;fill:#000000;fill-opacity:1;fill-rule:nonzero;stroke:none"
             id="text62"><tspan
               x="0 7.632 11.448"
               y="0"
               sodipodi:role="line"
               id="tspan60">0.3</tspan></text>
<path
             d="m 203.26954,94.92 v -3.5"
             style="fill:#000000;fill-opacity:1;fill-rule:nonzero;stroke:#000000;stroke-width:0.80000001;stroke-linecap:butt;stroke-linejoin:round;stroke-miterlimit:10;stroke-dasharray:none;stroke-opacity:1"
             id="path64"
             inkscape:connector-curvature="0" /><text
             transform="matrix(1,0,0,-1,193.72267,78.795)"
             style="font-variant:normal;font-weight:normal;font-size:12px;font-family:'DejaVu Sans';-inkscape-font-specification:DejaVuSans;writing-mode:lr-tb;fill:#000000;fill-opacity:1;fill-rule:nonzero;stroke:none"
             id="text68"><tspan
               x="0 7.632 11.448"
               y="0"
               sodipodi:role="line"
               id="tspan66">0.4</tspan></text>
<path
             d="m 242.375,94.92 v -3.5"
             style="fill:#000000;fill-opacity:1;fill-rule:nonzero;stroke:#000000;stroke-width:0.80000001;stroke-linecap:butt;stroke-linejoin:round;stroke-miterlimit:10;stroke-dasharray:none;stroke-opacity:1"
             id="path70"
             inkscape:connector-curvature="0" /><text
             transform="matrix(1,0,0,-1,232.82813,78.795)"
             style="font-variant:normal;font-weight:normal;font-size:12px;font-family:'DejaVu Sans';-inkscape-font-specification:DejaVuSans;writing-mode:lr-tb;fill:#000000;fill-opacity:1;fill-rule:nonzero;stroke:none"
             id="text74"><tspan
               x="0 7.632 11.448"
               y="0"
               sodipodi:role="line"
               id="tspan72">0.5</tspan></text>
<path
             d="m 281.48045,94.92 v -3.5"
             style="fill:#000000;fill-opacity:1;fill-rule:nonzero;stroke:#000000;stroke-width:0.80000001;stroke-linecap:butt;stroke-linejoin:round;stroke-miterlimit:10;stroke-dasharray:none;stroke-opacity:1"
             id="path76"
             inkscape:connector-curvature="0" /><text
             transform="matrix(1,0,0,-1,271.93358,78.795)"
             style="font-variant:normal;font-weight:normal;font-size:12px;font-family:'DejaVu Sans';-inkscape-font-specification:DejaVuSans;writing-mode:lr-tb;fill:#000000;fill-opacity:1;fill-rule:nonzero;stroke:none"
             id="text80"><tspan
               x="0 7.632 11.448"
               y="0"
               sodipodi:role="line"
               id="tspan78">0.6</tspan></text>
<path
             d="m 320.58591,94.92 v -3.5"
             style="fill:#000000;fill-opacity:1;fill-rule:nonzero;stroke:#000000;stroke-width:0.80000001;stroke-linecap:butt;stroke-linejoin:round;stroke-miterlimit:10;stroke-dasharray:none;stroke-opacity:1"
             id="path82"
             inkscape:connector-curvature="0" /><text
             transform="matrix(1,0,0,-1,311.03903,78.795)"
             style="font-variant:normal;font-weight:normal;font-size:12px;font-family:'DejaVu Sans';-inkscape-font-specification:DejaVuSans;writing-mode:lr-tb;fill:#000000;fill-opacity:1;fill-rule:nonzero;stroke:none"
             id="text86"><tspan
               x="0 7.632 11.448"
               y="0"
               sodipodi:role="line"
               id="tspan84">0.7</tspan></text>
<path
             d="m 359.69136,94.92 v -3.5"
             style="fill:#000000;fill-opacity:1;fill-rule:nonzero;stroke:#000000;stroke-width:0.80000001;stroke-linecap:butt;stroke-linejoin:round;stroke-miterlimit:10;stroke-dasharray:none;stroke-opacity:1"
             id="path88"
             inkscape:connector-curvature="0" /><text
             transform="matrix(1,0,0,-1,350.14449,78.795)"
             style="font-variant:normal;font-weight:normal;font-size:12px;font-family:'DejaVu Sans';-inkscape-font-specification:DejaVuSans;writing-mode:lr-tb;fill:#000000;fill-opacity:1;fill-rule:nonzero;stroke:none"
             id="text92"><tspan
               x="0 7.632 11.448"
               y="0"
               sodipodi:role="line"
               id="tspan90">0.8</tspan></text>
<g
             transform="translate(224.875,55.17)"
             id="g102"><text
               transform="matrix(1,0,0,-1,0,0.875)"
               style="font-style:italic;font-variant:normal;font-size:12px;font-family:'DejaVu Sans';-inkscape-font-specification:DejaVuSans-Oblique;writing-mode:lr-tb;fill:#000000;fill-opacity:1;fill-rule:nonzero;stroke:none"
               id="text96"><tspan
                 x="0"
                 y="0"
                 id="tspan94">x</tspan></text>
<text
               transform="matrix(1,0,0,-1,10.916016,0.875)"
               style="font-variant:normal;font-weight:normal;font-size:12px;font-family:'DejaVu Sans';-inkscape-font-specification:DejaVuSans;writing-mode:lr-tb;fill:#000000;fill-opacity:1;fill-rule:nonzero;stroke:none"
               id="text100"><tspan
                 x="0 7.3535156 14.455078 17.789062"
                 y="0"
                 sodipodi:role="line"
                 id="tspan98">axis</tspan></text>
</g><path
             d="m 113.327,104.69636 h -3.5"
             style="fill:#000000;fill-opacity:1;fill-rule:nonzero;stroke:#000000;stroke-width:0.80000001;stroke-linecap:butt;stroke-linejoin:round;stroke-miterlimit:10;stroke-dasharray:none;stroke-opacity:1"
             id="path104"
             inkscape:connector-curvature="0" /><text
             transform="matrix(1,0,0,-1,87.23325,100.13386)"
             style="font-variant:normal;font-weight:normal;font-size:12px;font-family:'DejaVu Sans';-inkscape-font-specification:DejaVuSans;writing-mode:lr-tb;fill:#000000;fill-opacity:1;fill-rule:nonzero;stroke:none"
             id="text108"><tspan
               x="0 7.632 11.448"
               y="0"
               sodipodi:role="line"
               id="tspan106">0.2</tspan></text>
<path
             d="m 113.327,143.80182 h -3.5"
             style="fill:#000000;fill-opacity:1;fill-rule:nonzero;stroke:#000000;stroke-width:0.80000001;stroke-linecap:butt;stroke-linejoin:round;stroke-miterlimit:10;stroke-dasharray:none;stroke-opacity:1"
             id="path110"
             inkscape:connector-curvature="0" /><text
             transform="matrix(1,0,0,-1,87.23325,139.23932)"
             style="font-variant:normal;font-weight:normal;font-size:12px;font-family:'DejaVu Sans';-inkscape-font-specification:DejaVuSans;writing-mode:lr-tb;fill:#000000;fill-opacity:1;fill-rule:nonzero;stroke:none"
             id="text114"><tspan
               x="0 7.632 11.448"
               y="0"
               sodipodi:role="line"
               id="tspan112">0.3</tspan></text>
<path
             d="m 113.327,182.90727 h -3.5"
             style="fill:#000000;fill-opacity:1;fill-rule:nonzero;stroke:#000000;stroke-width:0.80000001;stroke-linecap:butt;stroke-linejoin:round;stroke-miterlimit:10;stroke-dasharray:none;stroke-opacity:1"
             id="path116"
             inkscape:connector-curvature="0" /><text
             transform="matrix(1,0,0,-1,87.23325,178.34477)"
             style="font-variant:normal;font-weight:normal;font-size:12px;font-family:'DejaVu Sans';-inkscape-font-specification:DejaVuSans;writing-mode:lr-tb;fill:#000000;fill-opacity:1;fill-rule:nonzero;stroke:none"
             id="text120"><tspan
               x="0 7.632 11.448"
               y="0"
               sodipodi:role="line"
               id="tspan118">0.4</tspan></text>
<path
             d="m 113.327,222.01273 h -3.5"
             style="fill:#000000;fill-opacity:1;fill-rule:nonzero;stroke:#000000;stroke-width:0.80000001;stroke-linecap:butt;stroke-linejoin:round;stroke-miterlimit:10;stroke-dasharray:none;stroke-opacity:1"
             id="path122"
             inkscape:connector-curvature="0" /><text
             transform="matrix(1,0,0,-1,87.23325,217.45023)"
             style="font-variant:normal;font-weight:normal;font-size:12px;font-family:'DejaVu Sans';-inkscape-font-specification:DejaVuSans;writing-mode:lr-tb;fill:#000000;fill-opacity:1;fill-rule:nonzero;stroke:none"
             id="text126"><tspan
               x="0 7.632 11.448"
               y="0"
               sodipodi:role="line"
               id="tspan124">0.5</tspan></text>
<path
             d="m 113.327,261.11818 h -3.5"
             style="fill:#000000;fill-opacity:1;fill-rule:nonzero;stroke:#000000;stroke-width:0.80000001;stroke-linecap:butt;stroke-linejoin:round;stroke-miterlimit:10;stroke-dasharray:none;stroke-opacity:1"
             id="path128"
             inkscape:connector-curvature="0" /><text
             transform="matrix(1,0,0,-1,87.23325,256.55568)"
             style="font-variant:normal;font-weight:normal;font-size:12px;font-family:'DejaVu Sans';-inkscape-font-specification:DejaVuSans;writing-mode:lr-tb;fill:#000000;fill-opacity:1;fill-rule:nonzero;stroke:none"
             id="text132"><tspan
               x="0 7.632 11.448"
               y="0"
               sodipodi:role="line"
               id="tspan130">0.6</tspan></text>
<path
             d="m 113.327,300.22364 h -3.5"
             style="fill:#000000;fill-opacity:1;fill-rule:nonzero;stroke:#000000;stroke-width:0.80000001;stroke-linecap:butt;stroke-linejoin:round;stroke-miterlimit:10;stroke-dasharray:none;stroke-opacity:1"
             id="path134"
             inkscape:connector-curvature="0" /><text
             transform="matrix(1,0,0,-1,87.23325,295.66114)"
             style="font-variant:normal;font-weight:normal;font-size:12px;font-family:'DejaVu Sans';-inkscape-font-specification:DejaVuSans;writing-mode:lr-tb;fill:#000000;fill-opacity:1;fill-rule:nonzero;stroke:none"
             id="text138"><tspan
               x="0 7.632 11.448"
               y="0"
               sodipodi:role="line"
               id="tspan136">0.7</tspan></text>
<g
             transform="rotate(90,-56.363375,128.59663)"
             id="g148"><text
               transform="matrix(1,0,0,-1,0,0.875)"
               style="font-style:italic;font-variant:normal;font-size:12px;font-family:'DejaVu Sans';-inkscape-font-specification:DejaVuSans-Oblique;writing-mode:lr-tb;fill:#000000;fill-opacity:1;fill-rule:nonzero;stroke:none"
               id="text142"><tspan
                 x="0"
                 y="0"
                 id="tspan140">y</tspan></text>
<text
               transform="matrix(1,0,0,-1,10.916016,0.875)"
               style="font-variant:normal;font-weight:normal;font-size:12px;font-family:'DejaVu Sans';-inkscape-font-specification:DejaVuSans;writing-mode:lr-tb;fill:#000000;fill-opacity:1;fill-rule:nonzero;stroke:none"
               id="text146"><tspan
                 x="0 7.3535156 14.455078 17.789062"
                 y="0"
                 sodipodi:role="line"
                 id="tspan144">axis</tspan></text>
</g><g
             id="g154"><g
               clip-path="url(#clipPath22)"
               id="g152"><path
                 d="m 125.05864,222.01273 3.82008,3.6533 3.94556,3.45381 4.0615,3.25754 4.16799,3.06445 4.26516,2.87455 4.35312,2.6878 4.432,2.50418 5.25839,2.69364 5.3395,2.45288 5.40678,2.21701 5.46044,1.98596 5.5007,1.75974 5.52779,1.53828 5.54192,1.32157 5.54329,1.10954 5.53213,0.90219 5.50866,0.69947 6.25135,0.55703 6.18719,0.30505 6.10568,0.0598 6.00719,-0.1788 5.89209,-0.41078 5.76075,-0.63619 5.61356,-0.85513 5.45085,-1.06764 5.27302,-1.27378 5.08042,-1.47361 4.87343,-1.6672 4.65242,-1.85462 3.87883,-1.77171 3.69024,-1.90645 3.49295,-2.03717 3.28718,-2.16388 3.07314,-2.28666 2.85106,-2.40552 2.62113,-2.52048 2.3836,-2.63162 2.13865,-2.73893 1.63272,-2.43021 1.44309,-2.50394 1.24917,-2.57532 1.05108,-2.64438 0.84895,-2.71116 0.64289,-2.77565 0.43301,-2.83789 0.21944,-2.89789 0.002,-2.95566 -0.21834,-3.01126 -0.4423,-3.06465 -0.66951,-3.11589 -0.89982,-3.165 -1.13312,-3.21197 -1.36932,-3.25685 -1.60827,-3.29965 -1.84986,-3.34038 -2.094,-3.37906 -2.75476,-3.98845 -3.09396,-4.03517 -3.43657,-4.07875 -3.78239,-4.11923 -4.13118,-4.15662 -4.48274,-4.19099 -4.83685,-4.22235 -5.19329,-4.25075 -5.55185,-4.27622 -5.91231,-4.2988 -7.20046,-4.93691 -7.67562,-4.95845 -8.15259,-4.97587 -8.63099,-4.9892 -9.11044,-4.99851 -9.59059,-5.00386 -3.72034,-1.87703 v 0"
                 style="fill:none;stroke:#000000;stroke-width:1.5;stroke-linecap:square;stroke-linejoin:round;stroke-miterlimit:10;stroke-dasharray:none;stroke-opacity:1"
                 id="path150"
                 inkscape:connector-curvature="0" /></g></g><g
             id="g164"><path
               d="M 113.327,94.92 V 310"
               style="fill:none;stroke:#000000;stroke-width:0.80000001;stroke-linecap:square;stroke-linejoin:miter;stroke-miterlimit:10;stroke-dasharray:none;stroke-opacity:1"
               id="path156"
               inkscape:connector-curvature="0" /><path
               d="M 371.423,94.92 V 310"
               style="fill:none;stroke:#000000;stroke-width:0.80000001;stroke-linecap:square;stroke-linejoin:miter;stroke-miterlimit:10;stroke-dasharray:none;stroke-opacity:1"
               id="path158"
               inkscape:connector-curvature="0" /><path
               d="M 113.327,94.92 H 371.423"
               style="fill:none;stroke:#000000;stroke-width:0.80000001;stroke-linecap:square;stroke-linejoin:miter;stroke-miterlimit:10;stroke-dasharray:none;stroke-opacity:1"
               id="path160"
               inkscape:connector-curvature="0" /><path
               d="M 113.327,310 H 371.423"
               style="fill:none;stroke:#000000;stroke-width:0.80000001;stroke-linecap:square;stroke-linejoin:miter;stroke-miterlimit:10;stroke-dasharray:none;stroke-opacity:1"
               id="path162"
               inkscape:connector-curvature="0" /></g><g
             id="g210"><g
               clip-path="url(#clipPath26)"
               id="g208"><path
                 d="m 125.05864,222.01273 78.2109,78.21091 156.42182,-39.10546 V 182.90727 L 203.26954,104.69636"
                 style="fill:none;stroke:#ff0000;stroke-width:1.25;stroke-linecap:butt;stroke-linejoin:round;stroke-miterlimit:10;stroke-dasharray:8, 2, 1.25, 2;stroke-dashoffset:0;stroke-opacity:1"
                 id="path166"
                 inkscape:connector-curvature="0" /><g
                 transform="translate(125.05864,222.01273)"
                 id="g206"><g
                   id="g172"><g
                     clip-path="url(#clipPath30)"
                     id="g170"><path
                       d="m 0,-2.5 c 0.663008,0 1.29895,0.263416 1.767767,0.732233 C 2.236584,-1.29895 2.5,-0.663008 2.5,0 2.5,0.663008 2.236584,1.29895 1.767767,1.767767 1.29895,2.236584 0.663008,2.5 0,2.5 -0.663008,2.5 -1.29895,2.236584 -1.767767,1.767767 -2.236584,1.29895 -2.5,0.663008 -2.5,0 c 0,-0.663008 0.263416,-1.29895 0.732233,-1.767767 C -1.29895,-2.236584 -0.663008,-2.5 0,-2.5 Z"
                       style="fill:#ffffff;fill-opacity:1;fill-rule:nonzero;stroke:#ff0000;stroke-width:1.25;stroke-linecap:butt;stroke-linejoin:round;stroke-miterlimit:10;stroke-dasharray:none;stroke-opacity:1"
                       id="path168"
                       inkscape:connector-curvature="0" /></g></g><g
                   transform="translate(78.210909,78.210909)"
                   id="g204"><g
                     id="g178"><g
                       clip-path="url(#clipPath34)"
                       id="g176"><path
                         d="m 0,-2.5 c 0.663008,0 1.29895,0.263416 1.767767,0.732233 C 2.236584,-1.29895 2.5,-0.663008 2.5,0 2.5,0.663008 2.236584,1.29895 1.767767,1.767767 1.29895,2.236584 0.663008,2.5 0,2.5 -0.663008,2.5 -1.29895,2.236584 -1.767767,1.767767 -2.236584,1.29895 -2.5,0.663008 -2.5,0 c 0,-0.663008 0.263416,-1.29895 0.732233,-1.767767 C -1.29895,-2.236584 -0.663008,-2.5 0,-2.5 Z"
                         style="fill:#ffffff;fill-opacity:1;fill-rule:nonzero;stroke:#ff0000;stroke-width:1.25;stroke-linecap:butt;stroke-linejoin:round;stroke-miterlimit:10;stroke-dasharray:none;stroke-opacity:1"
                         id="path174"
                         inkscape:connector-curvature="0" /></g></g><g
                     transform="translate(156.42182,-39.105455)"
                     id="g202"><g
                       id="g184"><g
                         clip-path="url(#clipPath38)"
                         id="g182"><path
                           d="m 0,-2.5 c 0.663008,0 1.29895,0.263416 1.767767,0.732233 C 2.236584,-1.29895 2.5,-0.663008 2.5,0 2.5,0.663008 2.236584,1.29895 1.767767,1.767767 1.29895,2.236584 0.663008,2.5 0,2.5 -0.663008,2.5 -1.29895,2.236584 -1.767767,1.767767 -2.236584,1.29895 -2.5,0.663008 -2.5,0 c 0,-0.663008 0.263416,-1.29895 0.732233,-1.767767 C -1.29895,-2.236584 -0.663008,-2.5 0,-2.5 Z"
                           style="fill:#ffffff;fill-opacity:1;fill-rule:nonzero;stroke:#ff0000;stroke-width:1.25;stroke-linecap:butt;stroke-linejoin:round;stroke-miterlimit:10;stroke-dasharray:none;stroke-opacity:1"
                           id="path180"
                           inkscape:connector-curvature="0" /></g></g><g
                       transform="translate(0,-78.210909)"
                       id="g200"><g
                         id="g190"><g
                           clip-path="url(#clipPath42)"
                           id="g188"><path
                             d="m 0,-2.5 c 0.663008,0 1.29895,0.263416 1.767767,0.732233 C 2.236584,-1.29895 2.5,-0.663008 2.5,0 2.5,0.663008 2.236584,1.29895 1.767767,1.767767 1.29895,2.236584 0.663008,2.5 0,2.5 -0.663008,2.5 -1.29895,2.236584 -1.767767,1.767767 -2.236584,1.29895 -2.5,0.663008 -2.5,0 c 0,-0.663008 0.263416,-1.29895 0.732233,-1.767767 C -1.29895,-2.236584 -0.663008,-2.5 0,-2.5 Z"
                             style="fill:#ffffff;fill-opacity:1;fill-rule:nonzero;stroke:#ff0000;stroke-width:1.25;stroke-linecap:butt;stroke-linejoin:round;stroke-miterlimit:10;stroke-dasharray:none;stroke-opacity:1"
                             id="path186"
                             inkscape:connector-curvature="0" /></g></g><g
                         transform="translate(-156.42182,-78.210909)"
                         id="g198"><g
                           id="g196"><g
                             clip-path="url(#clipPath46)"
                             id="g194"><path
                               d="m 0,-2.5 c 0.663008,0 1.29895,0.263416 1.767767,0.732233 C 2.236584,-1.29895 2.5,-0.663008 2.5,0 2.5,0.663008 2.236584,1.29895 1.767767,1.767767 1.29895,2.236584 0.663008,2.5 0,2.5 -0.663008,2.5 -1.29895,2.236584 -1.767767,1.767767 -2.236584,1.29895 -2.5,0.663008 -2.5,0 c 0,-0.663008 0.263416,-1.29895 0.732233,-1.767767 C -1.29895,-2.236584 -0.663008,-2.5 0,-2.5 Z"
                               style="fill:#ffffff;fill-opacity:1;fill-rule:nonzero;stroke:#ff0000;stroke-width:1.25;stroke-linecap:butt;stroke-linejoin:round;stroke-miterlimit:10;stroke-dasharray:none;stroke-opacity:1"
                               id="path192"
                               inkscape:connector-curvature="0" /></g></g></g></g></g></g></g></g></g></g></g></g></g></svg>